<svg id="Layer_1" data-name="Layer 1" xmlns="http://www.w3.org/2000/svg" viewBox="0 0 460.1 255.94"><defs><style>.cls-1,.cls-4{fill:red;}.cls-2{fill:#ff0;}.cls-3{fill:#ed1c24;}.cls-3,.cls-4{fill-rule:evenodd;}</style></defs><path d="M63.75,122.65a10.27,10.27,0,0,1-1.07,4.25,20.67,20.67,0,0,1-2.84,4.46,25.71,25.71,0,0,1-4,3.9,16.16,16.16,0,0,1-4.42,2.59,22.59,22.59,0,0,1,3.49,1.35,16.25,16.25,0,0,1,3.21,2.11,4.38,4.38,0,0,1,.93,1.28,19.55,19.55,0,0,1,1,2,17.07,17.07,0,0,1,.73,2.11,6.92,6.92,0,0,1,.27,1.66,4.49,4.49,0,0,1-1.62,3.41,13.45,13.45,0,0,1-3.7,2.42,22.73,22.73,0,0,1-4,1.42,13.78,13.78,0,0,1-2.73.48H44.47a6.28,6.28,0,0,1-2.11-.58c-.94-.4-1.91-.86-2.9-1.39s-1.87-1-2.66-1.55a6.91,6.91,0,0,1-1.45-1.11,6.47,6.47,0,0,0,.35-1.83c.09-.94.16-2.11.2-3.52s.08-3,.11-4.7,0-3.49,0-5.28,0-3.42,0-4.88,0-2.8,0-4.07,0-2.49,0-3.66,0-2.39,0-3.63a5.81,5.81,0,0,1,.31-2.28c.21-.42.29-.62.25-.62a11,11,0,0,0-3.39.83,30.89,30.89,0,0,0-4.52,2.07,22.42,22.42,0,0,0-3.94,2.73,4,4,0,0,0-1.7,2.8,8.39,8.39,0,0,0,.35,2.62,8.17,8.17,0,0,1,.35,1.18,3.76,3.76,0,0,1-.49,2,1.64,1.64,0,0,1-1.52.79,1.61,1.61,0,0,1-1.31-.59,4.32,4.32,0,0,1-.73-1.31,6.84,6.84,0,0,1-.31-1.42c0-.46-.07-.76-.07-.89a8.21,8.21,0,0,1,1.59-4.91,15.72,15.72,0,0,1,4.15-3.9,28.17,28.17,0,0,1,5.84-2.91,56.13,56.13,0,0,1,6.73-2,61.12,61.12,0,0,1,6.74-1.17,49.85,49.85,0,0,1,5.84-.38h.55a16,16,0,0,1,5.84,1.2A11.15,11.15,0,0,1,61,117.13a1.23,1.23,0,0,1,.18.2.33.33,0,0,0,.1.14q.9,1,1.38,1.62a5.53,5.53,0,0,1,.73,1.11,3.74,3.74,0,0,1,.31,1.07A12.86,12.86,0,0,1,63.75,122.65Zm-5.32-1.38a4,4,0,0,0-3-4.11,27.2,27.2,0,0,0-8.71-1.07H42.64a13.72,13.72,0,0,0-1.9.14,2,2,0,0,0,.38.41,2,2,0,0,1,.45.66,5.57,5.57,0,0,1,.35,1.31,16.44,16.44,0,0,1,.13,2.38v13.62a.76.76,0,0,0,.31.72,7.43,7.43,0,0,0,2.25.17,9.38,9.38,0,0,0,4.11-1.21,19.36,19.36,0,0,0,4.53-3.21,20.83,20.83,0,0,0,3.66-4.56A10.16,10.16,0,0,0,58.43,121.27Zm-3.11,24.87a3.48,3.48,0,0,0-1-2.21,15.71,15.71,0,0,0-2.42-2.21A18.18,18.18,0,0,0,49.17,140a5.06,5.06,0,0,0-1.93-.66,22.67,22.67,0,0,0-3.11.21,5.29,5.29,0,0,0-1.66.35,2,2,0,0,0-.14.76c0,.46-.09,1-.14,1.76s-.08,1.48-.1,2.31,0,1.64,0,2.42a10.34,10.34,0,0,0,.14,1.56,5.53,5.53,0,0,0,.55,1.65,4.11,4.11,0,0,0,1.14,1.35,3.06,3.06,0,0,0,1.9.55l1.39-.13a8.09,8.09,0,0,0,2.1-.39,12.42,12.42,0,0,0,2.7-1.13,9.25,9.25,0,0,0,2.35-1.9A3.87,3.87,0,0,0,55.32,146.14Z" transform="translate(-19.18 -7.29)"/><path d="M77.91,149.91a10.3,10.3,0,0,1-2.28-4.21,9.49,9.49,0,0,0-.52,1.79,17.68,17.68,0,0,1-.93,2.87,10.86,10.86,0,0,1-1.63,2.7A3.13,3.13,0,0,1,70,154.27c-3,0-5-.86-6.08-2.56s-1.75-4.22-1.93-7.53V127.53c.09-.33.15-.56.17-.69s.22-.21.59-.21a8,8,0,0,1,1.21.14,17.41,17.41,0,0,1,1.76.38,6.94,6.94,0,0,1,1.62.65c.49.28.73.6.73,1V141q0,1.25,0,2.76a25.62,25.62,0,0,0,.21,2.8,6.9,6.9,0,0,0,.59,2.14,1.27,1.27,0,0,0,1.17.87c1.34,0,2.37-1.35,3.11-4s1.15-6.95,1.24-12.75a2.52,2.52,0,0,0-.27-1.11,2.81,2.81,0,0,1-.28-1.31q.13-.56,1.14-.69a13.91,13.91,0,0,1,1.83-.14,8.38,8.38,0,0,1,3,.41c.65.28,1,1.11,1,2.49-.09.83-.17,1.49-.24,2s-.12.92-.14,1.31,0,.81-.07,1.25,0,1.07,0,1.9c0,1.06,0,2.16.13,3.31a21.7,21.7,0,0,0,.49,3.18,9.81,9.81,0,0,0,.86,2.39,1.54,1.54,0,0,0,1.35.93,1.49,1.49,0,0,0,1.17-.45,6.41,6.41,0,0,0,.76-1c.23-.37.46-.7.69-1a1.16,1.16,0,0,1,1-.45.94.94,0,0,1,.83.38,1.26,1.26,0,0,1,.28.72,3.6,3.6,0,0,1-.66,2.21,5.22,5.22,0,0,1-1.59,1.45,6.94,6.94,0,0,1-1.9.8,6.81,6.81,0,0,1-1.59.24,6.19,6.19,0,0,1-2-.28,7.1,7.1,0,0,1-1.66-.82Z" transform="translate(-19.18 -7.29)"/><path d="M102.71,147.86a3.12,3.12,0,0,1-1.1,2.55,7.05,7.05,0,0,1-2.52,1.31,13.49,13.49,0,0,1-2.84.52c-.94.07-1.62.11-2,.11a16.69,16.69,0,0,1-2.38-.21,16.31,16.31,0,0,1-2.76-.66,6.33,6.33,0,0,1-2.28-1.28,2.66,2.66,0,0,1-.94-2.07,1.12,1.12,0,0,1,.59-1.07,2.39,2.39,0,0,1,1.14-.31,2.44,2.44,0,0,1,1.49.55l1.52,1.18a14.93,14.93,0,0,0,1.76,1.17,4.34,4.34,0,0,0,2.21.55,4.14,4.14,0,0,0,1.49-.38,1.35,1.35,0,0,0,.93-1.34,2.81,2.81,0,0,0-.8-1.87,15.37,15.37,0,0,0-2-1.86c-.81-.65-1.67-1.32-2.59-2A24.2,24.2,0,0,1,89,140.5a11.86,11.86,0,0,1-2-2.66,6.52,6.52,0,0,1-.79-3.18,5.78,5.78,0,0,1,1.55-4.08A11.61,11.61,0,0,1,91.42,128a18.37,18.37,0,0,1,4.31-1.39,20.7,20.7,0,0,1,3.46-.41,6.21,6.21,0,0,1,2.35.48,1.85,1.85,0,0,1,1.17,1.87,6.55,6.55,0,0,1-.17,1.21,6.83,6.83,0,0,1-.55,1.55,4.94,4.94,0,0,1-1,1.35,2.25,2.25,0,0,1-1.59.59.86.86,0,0,1-.56-.24l-.62-.56a6.24,6.24,0,0,0-.72-.55,1.63,1.63,0,0,0-.87-.24A3.8,3.8,0,0,0,93.25,133a5.23,5.23,0,0,0-1,3,4.19,4.19,0,0,0,1.62,2.9c1.09,1,2.28,2,3.6,3s2.51,2,3.59,3A4.08,4.08,0,0,1,102.71,147.86Z" transform="translate(-19.18 -7.29)"/><path d="M121.9,142a13.72,13.72,0,0,1-.62,3.87,13,13,0,0,1-1.93,4,11.36,11.36,0,0,1-3.35,3.07,9.19,9.19,0,0,1-4.87,1.25,9.85,9.85,0,0,1-4.56-1,8.72,8.72,0,0,1-3.08-2.63,10.51,10.51,0,0,1-1.73-3.9,21.36,21.36,0,0,1-.51-4.73,28.36,28.36,0,0,1,.55-5.32,22.68,22.68,0,0,1,1.73-5.43,13.51,13.51,0,0,1,3-4.21,6.09,6.09,0,0,1,4.35-1.7,5.56,5.56,0,0,1,2.35.52,6.83,6.83,0,0,1,1.93,1.35,6.31,6.31,0,0,1,1.32,1.93,6.8,6.8,0,0,1,.55,2.28l.07,1a13.81,13.81,0,0,1-.55,3.63,14.6,14.6,0,0,1-1.59,3.66,10.24,10.24,0,0,1-2.56,2.83,5.62,5.62,0,0,1-3.46,1.14,6.12,6.12,0,0,1-.86-.07,6.56,6.56,0,0,1-1-.2v2a4.48,4.48,0,0,0,.31,1.38,7,7,0,0,0,.93,1.76,6,6,0,0,0,1.63,1.52,4.33,4.33,0,0,0,2.45.66,6.13,6.13,0,0,0,3.28-.79,6.85,6.85,0,0,0,2.11-2A10.09,10.09,0,0,0,119,145c.3-1,.54-2,.72-3a4.84,4.84,0,0,1,.42-1.31.74.74,0,0,1,.69-.34c.69,0,1,.39,1,1.17Zm-8.15-10.7a2.63,2.63,0,0,0-.31-1.18,1.17,1.17,0,0,0-1.14-.62,2.58,2.58,0,0,0-2.14,1.31,12.62,12.62,0,0,0-1.49,3,21.13,21.13,0,0,0-.86,3.24,14.53,14.53,0,0,0-.28,2v.21a3.84,3.84,0,0,0,.11,1c.07.26.31.38.72.38h.35a3.1,3.1,0,0,0,2.35-1,8.14,8.14,0,0,0,1.55-2.49,15.75,15.75,0,0,0,.87-3,14.86,14.86,0,0,0,.27-2.49Z" transform="translate(-19.18 -7.29)"/><path d="M144.53,152.39a1,1,0,0,1-.63,1,2.78,2.78,0,0,1-1.17.28l-1.38-.14c-.23,0-.35.14-.35.42l-.07.83c0,1.24.07,2.8.07,4.69v5.46c0,1.84-.06,3.65-.17,5.43a22.4,22.4,0,0,1-.79,4.76,8.76,8.76,0,0,1-1.77,3.39,4,4,0,0,1-3.14,1.28q-1.73,0-3.63-.18a10.66,10.66,0,0,1-3.45-.86,6.32,6.32,0,0,1-2.56-2,5.94,5.94,0,0,1-1-3.63,21.61,21.61,0,0,1,.52-4.66,25.27,25.27,0,0,1,1.5-4.63,26.81,26.81,0,0,1,2.32-4.28,23.37,23.37,0,0,1,3-3.63c.56-.55,1.17-1.12,1.84-1.69s1.27-1.05,1.78-1.42v-.07c.09-1,.16-1.93.2-2.9s.07-2,.07-3c-.23.41-.51,1-.83,1.69a12.74,12.74,0,0,1-1.15,2,8.39,8.39,0,0,1-1.49,1.69,2.76,2.76,0,0,1-1.87.73,2.15,2.15,0,0,1-1-.21,2.65,2.65,0,0,0-1.18-.21,6.31,6.31,0,0,1-3.23-1,6.1,6.1,0,0,1-2-2.49,13.26,13.26,0,0,1-1-3.77,39.76,39.76,0,0,1-.27-4.87,59.81,59.81,0,0,1,.38-6.7,29.51,29.51,0,0,1,1.35-6.32,13.47,13.47,0,0,1,2.6-4.7,5.29,5.29,0,0,1,4.13-1.83,1.92,1.92,0,0,1,.73.21l1,.45,1,.48a4.39,4.39,0,0,0,.79.31,20.32,20.32,0,0,1,2.57.69,7.08,7.08,0,0,1,2,1.07,4.52,4.52,0,0,1,1.32,1.73,6.51,6.51,0,0,1,.49,2.66,10.11,10.11,0,0,1-.18,2,12.94,12.94,0,0,0-.17,2.28.77.77,0,0,0,.39.76,4.12,4.12,0,0,0,.9.35,8.24,8.24,0,0,1,.92.31.71.71,0,0,1,.42.73,2,2,0,0,1-.32.65l-.38.66a8.62,8.62,0,0,0-.34,1.76c-.09.81-.16,1.68-.21,2.63s-.08,1.91-.1,2.9,0,1.88,0,2.66v2.38c0,1,0,1.81.07,2.46h.28a1.45,1.45,0,0,0,.28,0l.2,0a5.29,5.29,0,0,1,1.7.38C144.17,151.5,144.53,151.88,144.53,152.39ZM135.75,131a12.65,12.65,0,0,0-.14-1.73,7.69,7.69,0,0,0-.48-1.83,3.87,3.87,0,0,0-1-1.45,2.39,2.39,0,0,0-1.64-.59,3.65,3.65,0,0,0-2.47,1,8.84,8.84,0,0,0-2,2.93A20.55,20.55,0,0,0,126.6,134a33,33,0,0,0-.52,6.19c0,1,0,2,.1,3a23,23,0,0,0,.35,2.8,5.92,5.92,0,0,0,.76,2.07,1.52,1.52,0,0,0,1.34.83,3.34,3.34,0,0,0,2.56-1.24,10.18,10.18,0,0,0,1.83-3.08,21,21,0,0,0,1.11-3.8,25.63,25.63,0,0,0,.45-3.42,20.23,20.23,0,0,1,.22-2.73,2.7,2.7,0,0,1,.29-.93,2.66,2.66,0,0,0,.55-1.31A10.31,10.31,0,0,0,135.75,131Zm-.27,24a12.53,12.53,0,0,0-3,3.11,25,25,0,0,0-2.47,4.35,27.76,27.76,0,0,0-1.64,4.77,18.17,18.17,0,0,0-.59,4.35,8.5,8.5,0,0,0,.14,1.52,6.42,6.42,0,0,0,.45,1.56,3.2,3.2,0,0,0,.91,1.21,2.18,2.18,0,0,0,1.42.48,2.92,2.92,0,0,0,2.41-1.21,8.73,8.73,0,0,0,1.46-2.87,16.92,16.92,0,0,0,.7-3.38q.18-1.72.18-2.76v-.63q0-.4,0-1.59c0-.78,0-1.87,0-3.28Z" transform="translate(-19.18 -7.29)"/><path d="M159.44,147.53a10.3,10.3,0,0,1-2.28-4.21,9.74,9.74,0,0,0-.51,1.79,16.82,16.82,0,0,1-.94,2.87,10.53,10.53,0,0,1-1.62,2.7,3.16,3.16,0,0,1-2.52,1.21c-2.95,0-5-.86-6.08-2.56s-1.75-4.22-1.94-7.53V125.15c.09-.33.15-.56.17-.69s.22-.21.59-.21a8,8,0,0,1,1.21.14,16.84,16.84,0,0,1,1.76.38,7.2,7.2,0,0,1,1.63.65c.48.28.72.6.72,1v12.23c0,.83,0,1.75,0,2.76a25.75,25.75,0,0,0,.2,2.8,7.18,7.18,0,0,0,.59,2.14,1.29,1.29,0,0,0,1.18.87q2,0,3.11-4.05T156,130.4a2.4,2.4,0,0,0-.28-1.11,2.94,2.94,0,0,1-.27-1.31q.13-.56,1.14-.69a13.66,13.66,0,0,1,1.83-.14,8.42,8.42,0,0,1,3,.41q1,.42,1,2.49c-.09.83-.17,1.49-.24,2s-.11.92-.14,1.31,0,.81-.06,1.25,0,1.07,0,1.9c0,1.06,0,2.16.14,3.31a20.48,20.48,0,0,0,.48,3.18,9.39,9.39,0,0,0,.87,2.39,1.55,1.55,0,0,0,2.52.48,7.1,7.1,0,0,0,.76-1c.23-.37.46-.7.69-1a1.15,1.15,0,0,1,1-.45,1,1,0,0,1,.83.38,1.24,1.24,0,0,1,.27.72,3.66,3.66,0,0,1-.65,2.21,5.22,5.22,0,0,1-1.59,1.45,7.21,7.21,0,0,1-1.9.8,7,7,0,0,1-1.59.24,6.25,6.25,0,0,1-2-.28,7,7,0,0,1-1.65-.82Z" transform="translate(-19.18 -7.29)"/><path class="cls-1" d="M379.58,115.86a5.16,5.16,0,0,1-.54.67,6.2,6.2,0,0,0-.92,1.43c-.38.8-.85,1.85-1.4,3.15s-1.13,2.75-1.72,4.39-1.19,3.38-1.78,5.24-1.13,3.8-1.59,5.79-.85,4-1.15,6a40.28,40.28,0,0,0-.44,5.79,16.12,16.12,0,0,0,.28,3.34,4.45,4.45,0,0,0,1,2.07,5.34,5.34,0,0,1-2.32.67,27.77,27.77,0,0,1-3.28.22c-.17,0-.58,0-1.24-.1a9.48,9.48,0,0,1-4.45-1.72,4.52,4.52,0,0,1-1.62-2.19c.34-.13.55-.62.63-1.49a24.46,24.46,0,0,0,.13-2.52c0-1-.06-2.19-.19-3.66s-.32-3-.57-4.73-.54-3.47-.86-5.32-.68-3.62-1.08-5.34-.82-3.33-1.24-4.83a36.17,36.17,0,0,0-1.27-3.79,4.77,4.77,0,0,0-1.05-1.56,2.66,2.66,0,0,0-1.94-.73,4.38,4.38,0,0,0-2.87,1,8.56,8.56,0,0,0-2.16,2.83,16.21,16.21,0,0,0-1.34,4.07,25.56,25.56,0,0,0-.44,4.77c0,.26,0,.69,0,1.31a8.86,8.86,0,0,0,.29,1.91,6.26,6.26,0,0,0,.73,1.75,1.48,1.48,0,0,0,1.3.76l2.36-.13a3.46,3.46,0,0,1,.95.22,9.1,9.1,0,0,1,1.34.61,4.46,4.46,0,0,1,1.2.95,1.88,1.88,0,0,1,.51,1.28,1.11,1.11,0,0,1-.51.89,4.42,4.42,0,0,1-1.14.6,8.94,8.94,0,0,1-1.24.35,4.49,4.49,0,0,1-.8.13,6.58,6.58,0,0,1-3.81-1.05,8,8,0,0,1-2.45-2.64,11.45,11.45,0,0,1-1.31-3.44,17,17,0,0,1-.38-3.37,29.62,29.62,0,0,1,.51-5,23.51,23.51,0,0,1,1.72-5.63,14.16,14.16,0,0,1,3.24-4.61,7.18,7.18,0,0,1,5.09-1.91,6,6,0,0,1,4.3,1.72,16,16,0,0,1,3.05,4A24,24,0,0,1,361,122.6c.44,1.49.75,2.59.92,3.31.42,1.61.84,3.37,1.24,5.28s.78,3.82,1.15,5.72.68,3.75,1,5.51.55,3.29.76,4.61c.6-2.42,1.21-5,1.85-7.7s1.31-5.46,2-8.24,1.52-5.53,2.39-8.27,1.83-5.33,2.89-7.79a10.32,10.32,0,0,1,1-1.78q.38-.51.57-.51a1.82,1.82,0,0,1,1,.35,4.39,4.39,0,0,1,.89.83,6.31,6.31,0,0,1,.64,1,2.14,2.14,0,0,1,.25.83Z" transform="translate(-19.18 -7.29)"/><path class="cls-1" d="M386.7,122.6a.85.85,0,0,1-.44.73,3.36,3.36,0,0,1-1,.42,10.6,10.6,0,0,1-1,.19l-.63.06a5.16,5.16,0,0,1-2.64-.76,7.46,7.46,0,0,1-2.39-2.42,5.43,5.43,0,0,0-.38-.51,1,1,0,0,1-.26-.44c0-.22.16-.41.48-.58s.68-.34,1.08-.51a9.62,9.62,0,0,1,1.15-.38,4.13,4.13,0,0,1,.73-.12,5.46,5.46,0,0,1,2.51.63,4.61,4.61,0,0,1,2,2.36c.08.12.24.35.47.66A1.44,1.44,0,0,1,386.7,122.6Zm6.49,19.28a19.26,19.26,0,0,1-.7,3.18,12.53,12.53,0,0,1-1.43,3.08,7.76,7.76,0,0,1-2.32,2.35,6.07,6.07,0,0,1-3.44.93,5.91,5.91,0,0,1-3.24-1.08,5.76,5.76,0,0,1-2.26-3,11.52,11.52,0,0,1-.6-3.57c0-.34,0-.84.06-1.52s.06-1.51.06-2.48v-7q0-.51,0-1.08a5.3,5.3,0,0,0-.16-1.08,2.68,2.68,0,0,0-.22-.58,1.17,1.17,0,0,1-.16-.44.47.47,0,0,1,.32-.41,2.62,2.62,0,0,1,.7-.23,7.32,7.32,0,0,1,1.08-.06l.89,0a7.71,7.71,0,0,1,1.46.22,4.16,4.16,0,0,1,1.37.61,1.32,1.32,0,0,1,.61,1.17,1.11,1.11,0,0,1-.23.7,6.77,6.77,0,0,0-.54,1.79c0,.34-.08.64-.12.92s-.09.58-.13.92-.09.75-.13,1.24-.08,1.11-.13,1.88v3.81c0,.68,0,1.37.07,2.07a10.55,10.55,0,0,0,.28,1.91,3.18,3.18,0,0,0,.74,1.4,1.73,1.73,0,0,0,1.33.54,2.57,2.57,0,0,0,1.91-.7,11.18,11.18,0,0,0,1.08-1.21,7,7,0,0,0,1.08-2.38c.26-1,.49-1.94.7-3l.13-.64a1.06,1.06,0,0,1,1.14-.95c.64,0,1,.44,1,1.33v.32Z" transform="translate(-19.18 -7.29)"/><path class="cls-1" d="M417.3,141.18a25.8,25.8,0,0,1-.54,3.18,15.54,15.54,0,0,1-1.21,3.37,8.14,8.14,0,0,1-2.1,2.67,4.78,4.78,0,0,1-3.15,1.08,5.33,5.33,0,0,1-4-1.27,9.68,9.68,0,0,1-2.07-4l-.06.32c-.17.68-.38,1.42-.61,2.23a8.68,8.68,0,0,1-.95,2.19,6,6,0,0,1-1.5,1.66,3.73,3.73,0,0,1-2.29.67A5.29,5.29,0,0,1,397,153a21.09,21.09,0,0,1-1.94-.86,5.91,5.91,0,0,1-2.29-2,9.31,9.31,0,0,1-1.21-2.61,11.12,11.12,0,0,1-.45-2.57c0-.83-.06-1.48-.06-1.94v-1.08a13.92,13.92,0,0,1,.19-1.66c.13-.85.33-1.83.6-3s.62-2.3,1-3.53a18.81,18.81,0,0,1,1.46-3.37,10.13,10.13,0,0,1,2-2.54,3.62,3.62,0,0,1,2.51-1,8.78,8.78,0,0,1,3,.51c.95.34,1.64.59,2.06.76.05-.76.08-1.69.1-2.8s0-2.19.06-3.27,0-2.09,0-3v-2.1c0-1.11,0-2-.07-2.83a15.79,15.79,0,0,0-.22-2,8.58,8.58,0,0,0-.35-1.33,4.35,4.35,0,0,0-.45-.89,13,13,0,0,1,2.14-.45,17.07,17.07,0,0,1,1.94-.13,8.66,8.66,0,0,1,2.25.23,1,1,0,0,1,.8,1.11c0,.25-.07,1-.19,2.23s-.26,2.83-.38,4.8-.26,4.25-.39,6.84-.19,5.34-.19,8.27v6.42c0,1.19,0,2.32.07,3.4a20.67,20.67,0,0,0,.28,2.87,5.81,5.81,0,0,0,.67,2,1.4,1.4,0,0,0,1.27.73A3,3,0,0,0,414,146a27,27,0,0,0,1.5-6.71,2.58,2.58,0,0,1,.25-.89c.13-.26.4-.38.83-.38s.62.24.73.73a4.62,4.62,0,0,1,.09,1.43ZM403.88,132c0-.12-.1-.27-.29-.44a5.15,5.15,0,0,0-.69-.51,6.9,6.9,0,0,0-.85-.45,2.15,2.15,0,0,0-.76-.19,2.73,2.73,0,0,0-2.24,1.56,15.16,15.16,0,0,0-1.64,3.85,31.24,31.24,0,0,0-1,4.9,39,39,0,0,0-.31,4.64c0,.51,0,1.1.06,1.78a8.76,8.76,0,0,0,.32,1.91,5.12,5.12,0,0,0,.69,1.53,1.38,1.38,0,0,0,1.2.63,1.92,1.92,0,0,0,1.51-.95,9.86,9.86,0,0,0,1.26-2.48,33,33,0,0,0,1-3.44c.31-1.27.58-2.53.82-3.78s.41-2.44.53-3.56.21-2,.26-2.71Z" transform="translate(-19.18 -7.29)"/><path class="cls-1" d="M433.9,142.26a12.92,12.92,0,0,1-.57,3.56,12.18,12.18,0,0,1-1.78,3.66,10.64,10.64,0,0,1-3.09,2.83,8.45,8.45,0,0,1-4.48,1.14,9,9,0,0,1-4.2-.89,8,8,0,0,1-2.83-2.42,9.72,9.72,0,0,1-1.59-3.59,19.23,19.23,0,0,1-.48-4.36,26.23,26.23,0,0,1,.51-4.89,21.18,21.18,0,0,1,1.59-5,12.38,12.38,0,0,1,2.74-3.88,5.62,5.62,0,0,1,4-1.56,5,5,0,0,1,2.17.48,6.25,6.25,0,0,1,1.78,1.24,5.79,5.79,0,0,1,1.21,1.78,6.46,6.46,0,0,1,.51,2.1l.06.89a12.4,12.4,0,0,1-.51,3.34,13.54,13.54,0,0,1-1.46,3.37,9.24,9.24,0,0,1-2.36,2.61,5.15,5.15,0,0,1-3.18,1.05,6.56,6.56,0,0,1-.79-.06,8.3,8.3,0,0,1-.92-.19v1.84a4.19,4.19,0,0,0,.28,1.27,6.36,6.36,0,0,0,.86,1.62,5.32,5.32,0,0,0,1.5,1.4,3.94,3.94,0,0,0,2.25.61,5.67,5.67,0,0,0,3-.73,6.44,6.44,0,0,0,1.94-1.88,9.21,9.21,0,0,0,1.17-2.58c.28-1,.5-1.87.67-2.76a4.39,4.39,0,0,1,.38-1.21.69.69,0,0,1,.64-.32c.63,0,.95.36.95,1.08Zm-7.5-9.86a2.43,2.43,0,0,0-.29-1.08,1.06,1.06,0,0,0-1.05-.58,2.39,2.39,0,0,0-2,1.21,11.73,11.73,0,0,0-1.37,2.77,18.45,18.45,0,0,0-.79,3,14.1,14.1,0,0,0-.26,1.88v.19a3.3,3.3,0,0,0,.1.92c.06.23.28.35.66.35h.32a2.86,2.86,0,0,0,2.17-1,7.36,7.36,0,0,0,1.43-2.29,13.94,13.94,0,0,0,.79-2.73,13.4,13.4,0,0,0,.26-2.29Z" transform="translate(-19.18 -7.29)"/><path class="cls-1" d="M453.43,133.9a1,1,0,0,1,.89-.44c.21,0,.36.13.45.38a2.2,2.2,0,0,1,.12.64A8.2,8.2,0,0,1,454,138a17.9,17.9,0,0,1-1.68,2.7,9.62,9.62,0,0,1-1.11,1.26A15.56,15.56,0,0,1,450,143q-.06,1.08-.09,1.5a3.3,3.3,0,0,1-.1.66,12.17,12.17,0,0,1-.63,2.41,13,13,0,0,1-1.43,2.86,9.73,9.73,0,0,1-2.23,2.38,4.86,4.86,0,0,1-3,1,8.26,8.26,0,0,1-1.31-.12,15.15,15.15,0,0,1-1.49-.35,14.7,14.7,0,0,1-1.46-.51,8,8,0,0,1-1.21-.6,9.37,9.37,0,0,1-2.61-2.1,9.17,9.17,0,0,1-1.56-2.57,12,12,0,0,1-.73-2.79,20.33,20.33,0,0,1-.19-2.76,23.22,23.22,0,0,1,.48-4.64,41.12,41.12,0,0,1,1.17-4.5,25.93,25.93,0,0,1,1.59-3.87,14.24,14.24,0,0,1,1.72-2.67,4.62,4.62,0,0,1,1.85-1.24,5.76,5.76,0,0,1,1.84-.35,4.53,4.53,0,0,1,2,.51,11.53,11.53,0,0,1,2,1.27,17.76,17.76,0,0,1,1.87,1.75c.62.65,1.2,1.3,1.75,1.93a4.72,4.72,0,0,1,1,2.26c.21,1,.38,2.08.51,3.14.08.59.15,1.23.19,1.9s.06,1.38.06,2.1a7.22,7.22,0,0,0,1.53-1.62,11.47,11.47,0,0,0,.92-1.62A15.15,15.15,0,0,0,453,135,4.75,4.75,0,0,1,453.43,133.9Zm-7.51,10.65a5.61,5.61,0,0,1-2.1.76,12.18,12.18,0,0,1-2.22.25,10.46,10.46,0,0,1-2.64-.25,6.68,6.68,0,0,1-2-1l-.06,1.34a5.86,5.86,0,0,0,.19,1.46,4.51,4.51,0,0,0,.61,1.4,3,3,0,0,0,1.17,1,3.94,3.94,0,0,0,1.91.41,4.73,4.73,0,0,0,4-1.9,6.26,6.26,0,0,0,1.17-3.5Zm.29-6.36c0-.6-.06-1.3-.13-2.1s-.17-1.65-.32-2.52a12.53,12.53,0,0,0-.63-2.38,6.07,6.07,0,0,0-1.05-1.81,2,2,0,0,0-1.59-.74,2.83,2.83,0,0,0-1.85.77,7.62,7.62,0,0,0-1.59,2,12,12,0,0,0-1.11,2.73,11.26,11.26,0,0,0-.41,3,5.64,5.64,0,0,0,1,3.73A4.42,4.42,0,0,0,442,142a7,7,0,0,0,3-.57c.78-.38,1.17-.68,1.17-.89v-1.21Q446.24,139.07,446.21,138.19Z" transform="translate(-19.18 -7.29)"/><path class="cls-1" d="M468.31,148.11a2.87,2.87,0,0,1-1,2.35,6.6,6.6,0,0,1-2.32,1.21,12.6,12.6,0,0,1-2.61.48c-.87.06-1.5.09-1.88.09a15.05,15.05,0,0,1-2.19-.19,13.9,13.9,0,0,1-2.55-.6,6,6,0,0,1-2.1-1.18,2.45,2.45,0,0,1-.86-1.91,1,1,0,0,1,.54-1,2.25,2.25,0,0,1,1.05-.29,2.22,2.22,0,0,1,1.37.51l1.4,1.08a14.25,14.25,0,0,0,1.62,1.08,4.06,4.06,0,0,0,2,.51,3.79,3.79,0,0,0,1.37-.35,1.24,1.24,0,0,0,.86-1.24,2.61,2.61,0,0,0-.74-1.72,14.21,14.21,0,0,0-1.84-1.71c-.74-.6-1.54-1.21-2.39-1.85a20.41,20.41,0,0,1-2.38-2.07,10.84,10.84,0,0,1-1.85-2.44,6.09,6.09,0,0,1-.73-2.93,5.28,5.28,0,0,1,1.43-3.75,10.69,10.69,0,0,1,3.37-2.42,17.07,17.07,0,0,1,4-1.27,17.93,17.93,0,0,1,3.18-.38,5.56,5.56,0,0,1,2.16.44,1.69,1.69,0,0,1,1.08,1.72,6.08,6.08,0,0,1-.15,1.11,6.26,6.26,0,0,1-.51,1.43,4.34,4.34,0,0,1-.93,1.24,2,2,0,0,1-1.46.54.77.77,0,0,1-.51-.22l-.57-.51a5.39,5.39,0,0,0-.67-.51,1.51,1.51,0,0,0-.79-.22,3.52,3.52,0,0,0-3.12,1.3,4.87,4.87,0,0,0-.89,2.77,3.87,3.87,0,0,0,1.49,2.67q1.5,1.41,3.31,2.8t3.31,2.77A3.74,3.74,0,0,1,468.31,148.11Z" transform="translate(-19.18 -7.29)"/><path class="cls-2" d="M477.2,9.5l.56,83.08-.05,4.33a12,12,0,0,1-11.93,11.86l-22,.12L444,41.94h-82.9l.19-33Z" transform="translate(-19.18 -7.29)"/><path d="M27.06,7.85,26.5,90.93l.05,4.33a12,12,0,0,0,11.93,11.86l22,.13L60.25,40.3h82.89l-.18-33Z" transform="translate(-19.18 -7.29)"/><path d="M29.17,261.49l-.56-83.08.05-4.33a12,12,0,0,1,11.93-11.86l22-.12-.18,67h82.89l-.12,21A12,12,0,0,1,133.08,262Z" transform="translate(-19.18 -7.29)"/><path class="cls-2" d="M479.28,261.79l-.19-83.08-.09-4.34a12,12,0,0,0-12-11.75l-22,.08.8,66.94-82.89.75.31,21a12,12,0,0,0,12.16,11.82Z" transform="translate(-19.18 -7.29)"/><path class="cls-3" d="M255.72,213.53,245.36,203.1c-38.73-34.17-64-57.25-64-85.54,0-23.08,17.86-40.86,40.93-40.86a44.7,44.7,0,0,1,33.44,15.58A45,45,0,0,1,289.23,76.7c23.08,0,40.94,17.78,40.94,40.86,0,28.29-25.36,51.37-64,85.54Z" transform="translate(-19.18 -7.29)"/><path class="cls-4" d="M255.72,92.28A45.34,45.34,0,0,1,289.23,76.7c23.08,0,40.94,17.78,40.94,40.86,0,28.29-25.36,51.37-64,85.54l-10.44,10.43Z" transform="translate(-19.18 -7.29)"/></svg>