<!-- Generator: Adobe Illustrator 18.1.0, SVG Export Plug-In  -->
<svg version="1.1"
	 xmlns="http://www.w3.org/2000/svg" xmlns:xlink="http://www.w3.org/1999/xlink" xmlns:a="http://ns.adobe.com/AdobeSVGViewerExtensions/3.0/"
	 x="0px" y="0px" width="140.653px" height="108.941px" viewBox="0 0 140.653 108.941"
	 style="enable-background:new 0 0 140.653 108.941;" xml:space="preserve">
<defs>
</defs>
<g>
	<path style="fill:#FFFFFF;" d="M29.386,83.963C11.522,77.711,0,63.16,0,47.787C0,32.314,11.522,17.763,29.386,11.51l2.46,4.305
		C16.052,21.348,5.955,34.159,5.955,47.787c0,13.63,10.097,26.441,25.891,31.973L29.386,83.963z"/>
	<path style="fill:#FFFFFF;" d="M98.175,44.763h-9.169v30.774h-3.904V13.445h13.073v3.54h-9.169v24.148h9.169V44.763z"/>
	<path style="fill:#FFFFFF;" d="M119.414,75.537h-13.073V13.445h13.073v3.54h-9.169v24.148h9.169v3.631h-9.169v27.234h9.169V75.537z
		"/>
	<path style="fill:#FFFFFF;" d="M140.653,75.537H127.58V13.445h13.073v3.54h-9.169v24.148h9.169v3.631h-9.169v27.234h9.169V75.537z"
		/>
	<g>
		<path style="fill:#FFFFFF;" d="M52.168,108.576h-3.499V94.784h-8.217v13.792h-3.499V80.75h3.499v12.407h8.217V80.75h3.499V108.576
			z"/>
		<path style="fill:#FFFFFF;" d="M71.204,108.901c-10.739,0-12.122-10.618-12.122-14.238c0-3.619,1.383-14.238,12.122-14.238
			c10.74,0,12.123,10.619,12.123,14.238C83.327,98.283,81.944,108.901,71.204,108.901z M71.204,82.174
			c-7.566,0-8.543,10.088-8.543,12.488s0.977,12.49,8.543,12.49c7.567,0,8.544-10.089,8.544-12.49S78.771,82.174,71.204,82.174z"/>
		<path style="fill:#FFFFFF;" d="M105.536,105.036c0,2.075-3.418,3.783-7.567,3.783c-4.23,0-7.648-1.708-7.648-3.783V80.75h3.499
			v24.286c0,1.139,1.871,2.035,4.149,2.035c2.197,0,4.068-0.895,4.068-2.035V80.75h3.499V105.036z"/>
		<path style="fill:#FFFFFF;" d="M114.321,108.941l-1.058-1.667c4.149-0.406,5.939-2.969,5.939-4.841
			c0-4.677-7.973-10.252-7.973-15.336c0-2.646,2.685-6.184,8.543-6.714l1.058,1.669c-4.15,0.406-5.939,2.969-5.939,4.881
			c0,4.638,7.973,10.211,7.973,15.296C122.864,104.873,120.179,108.413,114.321,108.941z"/>
		<path style="fill:#FFFFFF;" d="M140.273,108.576h-11.716V80.75h11.716v1.586h-8.217v10.821h8.217v1.627h-8.217v12.205h8.217
			V108.576z"/>
	</g>
	<g>
		<path style="fill:#FFFFFF;" d="M40.682,1.077h-2.75V18.89h-1.714V1.077h-2.75V0h7.213V1.077z"/>
		<path style="fill:#FFFFFF;" d="M49.767,18.89h-1.714V9.527h-4.025v9.363h-1.714V0h1.714v8.423h4.025V0h1.714V18.89z"/>
		<path style="fill:#FFFFFF;" d="M58.093,18.89h-5.739V0h5.739v1.077h-4.025v7.347h4.025v1.104h-4.025v8.286h4.025V18.89z"/>
	</g>
	<path style="fill:#FFFFFF;" d="M59.271,41.644c1.385-5.414-0.129-10.406-3.621-13.618c-0.05-0.046-0.104-0.087-0.154-0.132
		c-1.222,0.792-4.52,3.104-5.732,5.726c-0.73,1.579-0.385,4.323-0.915,7.463C52.507,40.275,55.61,40.694,59.271,41.644z"/>
	<path style="fill:#FFFFFF;" d="M42.546,42.515c0.025-0.227,0.048-0.454,0.061-0.686c0.461-8.301,9.944-13.578,12.012-14.633
		c-6.072-4.318-16.211-1.854-23.369,5.927c-7.579,8.239-8.944,19.316-3.048,24.74c0.309,0.285-0.121,0.099,0.215,0.341
		C29.269,51.953,34.128,45.493,42.546,42.515z"/>
	<path style="fill:#FFFFFF;" d="M68.897,53.444c-0.013-0.063-0.031-0.124-0.045-0.187c-1.373-0.067-5.173-0.114-7.546,1.227
		c-2.937,1.659-5.098,9.586-15.806,9.352c-10.708-0.234-11.872-2.053-10.839-1.809c0.249,0.059,11.106,1.653,16.639-5.2
		c4.928-6.104,15.1-4.919,17.265-4.587c-1.297-3.8-4.833-6.63-9.444-7.99c-2.785-0.821-5.962-1.095-9.28-0.724
		c-0.808,0.09-1.621,0.205-2.442,0.374c-1.216,0.251-2.386,0.582-3.505,0.978c-7.943,2.81-13.208,9.031-12.618,15.224
		c0.034,0.356,0.081,0.712,0.154,1.068c1.527,7.404,11.152,11.677,21.498,9.543C63.274,68.579,70.424,60.848,68.897,53.444z"/>
	<g>
		<path style="fill:#FFFFFF;" d="M65.199,69.13v6.407h3.904V64.576C68.141,66.218,66.816,67.756,65.199,69.13z"/>
		<path style="fill:#FFFFFF;" d="M78.272,16.985v-3.54H65.199v30.483c1.611,1.045,2.931,2.332,3.904,3.809v-2.973h9.169v-3.631
			h-9.169V16.985H78.272z"/>
	</g>
</g>
</svg>
